<?xml version="1.0" encoding="iso-8859-1"?>
<!-- Generator: Adobe Illustrator 16.0.0, SVG Export Plug-In . SVG Version: 6.00 Build 0)  -->
<!DOCTYPE svg PUBLIC "-//W3C//DTD SVG 1.1//EN" "http://www.w3.org/Graphics/SVG/1.1/DTD/svg11.dtd">
<svg version="1.1" id="Capa_1" xmlns="http://www.w3.org/2000/svg" xmlns:xlink="http://www.w3.org/1999/xlink" x="0px" y="0px"
	 width="612px" height="612px" viewBox="0 0 612 612" style="enable-background:new 0 0 612 612;" xml:space="preserve">
<g>
	<g id="Shape_11">
		<g>
			<path d="M543.15,91.8H68.85C30.891,91.8,0,122.69,0,160.65v290.7C0,489.31,30.891,520.2,68.85,520.2h474.3
				c37.959,0,68.85-30.891,68.85-68.851v-290.7C612,122.69,581.109,91.8,543.15,91.8z M543.15,107.1
				c11.918,0,22.843,4.054,31.747,10.664L306,326.899L37.103,117.764c8.905-6.61,19.829-10.664,31.748-10.664H543.15z M596.7,451.35
				c0,12.011-4.116,22.981-10.817,31.916L387.901,285.284l-10.817,10.817l197.981,197.982c-8.935,6.701-19.905,10.817-31.915,10.817
				H68.85c-12.011,0-22.98-4.116-31.916-10.817l197.982-197.982l-10.817-10.817L26.117,483.266
				C19.416,474.331,15.3,463.36,15.3,451.35v-290.7c0-12.041,4.146-23.042,10.878-31.992L306,346.3l279.821-217.642
				c6.732,8.951,10.879,19.951,10.879,31.992V451.35z"/>
		</g>
	</g>
</g>
<g>
</g>
<g>
</g>
<g>
</g>
<g>
</g>
<g>
</g>
<g>
</g>
<g>
</g>
<g>
</g>
<g>
</g>
<g>
</g>
<g>
</g>
<g>
</g>
<g>
</g>
<g>
</g>
<g>
</g>
</svg>
